<?xml version="1.0" encoding="UTF-8"?>
<svg version="1.1" xmlns="http://www.w3.org/2000/svg" width="96" height="96">
<path d="M0 0 C5.97648437 0.65751142 11.97027377 0.38332286 17.953125 -0.0703125 C37.3339692 -1.49514927 37.3339692 -1.49514927 45.31640625 4.44921875 C50.18567144 11.08912583 50.831172 17.45141022 50.77734375 25.421875 C50.78021393 26.37057968 50.78308411 27.31928436 50.78604126 28.29673767 C50.78807204 30.29101157 50.78261164 32.28530584 50.77001953 34.27954102 C50.75393399 37.31897764 50.76991128 40.35708829 50.7890625 43.39648438 C50.78708024 45.34245083 50.78323693 47.28841646 50.77734375 49.234375 C50.78341644 50.13559586 50.78948914 51.03681671 50.79574585 51.96534729 C50.72280227 58.55710831 49.91773967 63.72288533 45.06640625 68.57421875 C40.27847239 71.58059582 35.94630073 72.51442894 30.3359375 72.421875 C28.61479736 72.40483521 28.61479736 72.40483521 26.85888672 72.38745117 C25.64861816 72.36658447 24.43834961 72.34571777 23.19140625 72.32421875 C14.6673529 72.22999683 6.25390945 72.30523945 -2.24609375 72.94921875 C-9.42148773 73.42479277 -16.54203717 73.76760579 -22.2890625 68.828125 C-26.52655596 64.06836343 -26.75926821 59.83687618 -26.69140625 53.77734375 C-26.68658234 53.02914368 -26.68175842 52.2809436 -26.67678833 51.5100708 C-26.66618507 49.9118922 -26.65362439 48.31372559 -26.63928223 46.71557617 C-26.62141009 44.30439714 -26.61851216 41.89365974 -26.62011719 39.48242188 C-26.62001499 35.46951606 -26.58188319 31.45825954 -26.5234375 27.44580078 C-26.50496796 25.80168174 -26.49776331 24.15740323 -26.50097656 22.51318359 C-26.50382835 20.08964346 -26.46869853 17.66920171 -26.42578125 15.24609375 C-26.43487518 14.51590027 -26.44396912 13.78570679 -26.45333862 13.03338623 C-26.3721619 10.18948517 -26.17980484 7.92989448 -24.31549072 5.70031738 C-17.01478395 -0.51755218 -9.12267633 -1.18857204 0 0 Z " fill="#080504" transform="translate(37.62109375,11.73828125)"/>
<path d="M0 0 C0.66 0.33 1.32 0.66 2 1 C1.67 1.99 1.34 2.98 1 4 C0.39587151 10.13041863 0.36972022 15.91649037 3.5546875 21.33984375 C7.06446755 25.37134787 11.5885816 26.67117022 16.75 27.375 C22.96541724 27.65124077 27.94761972 26.75213536 33 23 C36.43125241 19.35429432 36.37900768 15.57788615 36.49609375 10.79296875 C35.95073085 6.95512966 35.95073085 6.95512966 32 0 C38.93 0 45.86 0 53 0 C53.21280126 4.55343413 53.41516607 9.10501827 53.59204102 13.65966797 C53.65510648 15.20582034 53.72400886 16.75174693 53.79907227 18.29736328 C54.57402465 34.4101317 54.57402465 34.4101317 51 41 C46.97086849 44.92840323 43.71019518 46.09489131 38.18066406 46.25292969 C37.2024469 46.28255798 36.22422974 46.31218628 35.21636963 46.3427124 C33.63200104 46.38189789 33.63200104 46.38189789 32.015625 46.421875 C30.92666931 46.44977112 29.83771362 46.47766724 28.71575928 46.50640869 C26.40920411 46.5628272 24.10257893 46.61644203 21.79589844 46.66748047 C18.27744548 46.74936129 14.76004506 46.85298472 11.2421875 46.95703125 C9.00003104 47.0091651 6.75784366 47.05998874 4.515625 47.109375 C3.4674762 47.14359558 2.41932739 47.17781616 1.3394165 47.21307373 C-4.60340781 47.31515505 -8.78115993 46.93222591 -14 44 C-18.93514917 38.93497849 -19.16720081 34.64309167 -19.09765625 27.87988281 C-18.92186675 22.69585051 -18.46440358 17.53992089 -18 12.375 C-17.90460937 11.27542969 -17.80921875 10.17585938 -17.7109375 9.04296875 C-17.47777676 6.36162018 -17.2407296 3.68067779 -17 1 C-16.21826416 1.16153564 -15.43652832 1.32307129 -14.63110352 1.48950195 C-9.43689022 2.49730561 -4.70492144 2.71437775 0 0 Z " fill="#F9BD93" transform="translate(32,35)"/>
<path d="M0 0 C0.66 0 1.32 0 2 0 C2.33 2.97 2.66 5.94 3 9 C3.33 6.03 3.66 3.06 4 0 C4.33 0 4.66 0 5 0 C5.495 8.415 5.495 8.415 6 17 C6.33 11.72 6.66 6.44 7 1 C14.66552213 0.63341653 22.33162228 0.30082418 30 0 C30.73798828 -0.03158203 31.47597656 -0.06316406 32.23632812 -0.09570312 C39.2032335 -0.37437934 44.75520673 -0.29270918 51 3 C55.89463127 8.145638 56.10996872 11.18193921 56 18 C51.97930575 18.08765069 47.9588599 18.14061018 43.9375 18.1875 C42.2369043 18.22520508 42.2369043 18.22520508 40.50195312 18.26367188 C34.08864366 18.31976496 29.70702961 17.89845204 24 15 C18.22843356 14.05808036 14.06369796 15.05598956 9 18 C6.625 18.6875 6.625 18.6875 5 19 C5 19.66 5 20.32 5 21 C-0.04308144 24.02584887 -3.27224689 24.45458358 -9 24 C-11.9375 23.1875 -11.9375 23.1875 -14 22 C-15.14077657 18.57767028 -15.09815117 15.91326783 -15.0625 12.3125 C-15.05347656 11.13300781 -15.04445313 9.95351563 -15.03515625 8.73828125 C-15.02355469 7.83464844 -15.01195312 6.93101563 -15 6 C-14.01 5.67 -13.02 5.34 -12 5 C-11.67 5.99 -11.34 6.98 -11 8 C-10.34 6.02 -9.68 4.04 -9 2 C-8.34 2 -7.68 2 -7 2 C-7 7.28 -7 12.56 -7 18 C-4.69 18 -2.38 18 0 18 C0 12.06 0 6.12 0 0 Z " fill="#C06227" transform="translate(29,14)"/>
<path d="M0 0 C5.03212797 2.46859108 8.53245124 5.98625552 11 11 C12.28288565 15.5176464 12.36404059 18.90787824 10.875 23.375 C8.29866202 26.98187317 5.84935241 28.46466115 1.625 29.6875 C-5.37781963 30.521169 -10.13583953 29.95193423 -16 26 C-19.43954775 22.38406519 -20.86413494 19.76624574 -21.25 14.75 C-20.91757942 9.7636913 -20.05506179 6.00085152 -16.37109375 2.4140625 C-11.00737446 -1.50849585 -6.32125476 -1.73170508 0 0 Z " fill="#283C58" transform="translate(55,31)"/>
<path d="M0 0 C0.97710937 0.49113281 1.95421875 0.98226563 2.9609375 1.48828125 C8.33087563 3.89845066 14.15054004 3.57235299 19.9375 3.6875 C21.67870117 3.73874023 21.67870117 3.73874023 23.45507812 3.79101562 C26.30328882 3.87306285 29.15120839 3.94235536 32 4 C32 4.99 32 5.98 32 7 C22.1 7.495 22.1 7.495 12 8 C13.32 10.31 14.64 12.62 16 15 C16.96801679 19.84720171 16.50126773 23.8721476 14.5 28.375 C9.84039252 33.26758785 5.32929768 35.21568077 -1.4375 35.5 C-6.88414266 35.27305656 -11.4633586 34.08416162 -16 31 C-21.2632739 24.55248947 -21.37845578 18.99344491 -21 11 C-20.625 7.625 -20.625 7.625 -19 5 C-13.2759668 0.88482508 -7.03448601 -1.43317202 0 0 Z M-16 7 C-18.79358082 11.71416763 -19.59334221 15.56102976 -19 21 C-16.90510607 26.62313635 -13.87779538 29.48537085 -8.625 32.25 C-2.84636122 33.90103965 2.45911774 33.15478754 8 31 C11.71597016 28.33419532 13.29018533 26.12257434 14.0625 21.6875 C14.34753829 16.64902904 12.94314563 13.04793003 10 9 C5.81227383 4.37825179 1.20500954 2.48771884 -4.875 1.5625 C-9.38879854 2.1944318 -12.5836478 4.00597831 -16 7 Z " fill="#130E0A" transform="translate(53,28)"/>
<path d="M0 0 C5.03212797 2.46859108 8.53245124 5.98625552 11 11 C12.28288565 15.5176464 12.36404059 18.90787824 10.875 23.375 C8.29866202 26.98187317 5.84935241 28.46466115 1.625 29.6875 C-5.37781963 30.521169 -10.13583953 29.95193423 -16 26 C-19.43954775 22.38406519 -20.86413494 19.76624574 -21.25 14.75 C-20.91757942 9.7636913 -20.05506179 6.00085152 -16.37109375 2.4140625 C-11.00737446 -1.50849585 -6.32125476 -1.73170508 0 0 Z M-16 6 C-18.97307695 10.45961542 -18.62015709 14.77077414 -18 20 C-16.25760836 23.16211816 -14.85861953 24.44442266 -11.875 26.375 C-6.90857658 27.45465726 -1.559185 27.46973275 2.9453125 24.8828125 C6.17422265 22.24664914 7.84142526 20.39545773 8.3125 16.25 C7.80030248 10.92314576 5.23497229 8.09137086 1.3125 4.625 C-4.6340536 1.70782276 -10.71115797 1.67276562 -16 6 Z " fill="#EAB18A" transform="translate(55,31)"/>
<path d="M0 0 C0.66 0 1.32 0 2 0 C2.33 2.97 2.66 5.94 3 9 C3.33 6.03 3.66 3.06 4 0 C4.33 0 4.66 0 5 0 C5.04898438 1.20398438 5.09796875 2.40796875 5.1484375 3.6484375 C5.22346343 5.22398198 5.29901133 6.79950166 5.375 8.375 C5.4059375 9.1690625 5.436875 9.963125 5.46875 10.78125 C5.51816421 15.36667375 5.51816421 15.36667375 8 19 C7.01 19 6.02 19 5 19 C5 19.66 5 20.32 5 21 C-0.04308144 24.02584887 -3.27224689 24.45458358 -9 24 C-11.9375 23.1875 -11.9375 23.1875 -14 22 C-15.14077657 18.57767028 -15.09815117 15.91326783 -15.0625 12.3125 C-15.05347656 11.13300781 -15.04445313 9.95351563 -15.03515625 8.73828125 C-15.02355469 7.83464844 -15.01195312 6.93101563 -15 6 C-14.01 5.67 -13.02 5.34 -12 5 C-11.67 5.99 -11.34 6.98 -11 8 C-10.34 6.02 -9.68 4.04 -9 2 C-8.34 2 -7.68 2 -7 2 C-7 7.28 -7 12.56 -7 18 C-4.69 18 -2.38 18 0 18 C0 12.06 0 6.12 0 0 Z " fill="#150C08" transform="translate(29,14)"/>
<path d="M0 0 C1.06992188 -0.03738281 2.13984375 -0.07476563 3.2421875 -0.11328125 C6.125 0.3125 6.125 0.3125 8.01953125 2.10546875 C9.67728442 5.4151173 8.97143907 7.79652234 8.125 11.3125 C6.125 13.3125 6.125 13.3125 3.84765625 13.578125 C2.96980469 13.57296875 2.09195313 13.5678125 1.1875 13.5625 C0.31222656 13.56765625 -0.56304687 13.5728125 -1.46484375 13.578125 C-3.875 13.3125 -3.875 13.3125 -6.875 11.3125 C-7.203125 8.96484375 -7.203125 8.96484375 -7.125 6.25 C-7.10953125 5.35152344 -7.0940625 4.45304687 -7.078125 3.52734375 C-6.6750546 -0.86767388 -3.84767074 0.08765677 0 0 Z " fill="#263A57" transform="translate(71.875,16.6875)"/>
<path d="M0 0 C4.82240211 2.36570669 7.52642771 5.24313021 10 10 C10.79403058 14.23482976 10.25291288 15.61319207 7.875 19.25 C4.27250257 22.69586711 1.80388117 23.96526165 -3.20703125 24.02734375 C-8.27822144 23.69935632 -11.34713697 22.767015 -15 19 C-16.97698481 15.04603037 -16.57069292 10.29880647 -16 6 C-11.45475257 0.01941128 -7.17555339 -0.85913034 0 0 Z M-13 6 C-14.04000331 9.40730368 -14.35512975 12.45443044 -14 16 C-12.46151371 19.37231504 -12.46151371 19.37231504 -9 21 C-3.83375422 21.858463 0.44226135 21.8100241 5.125 19.375 C7.47549954 16.39770059 8.07605527 14.80276325 8 11 C5.6091868 6.12274108 3.09849015 3.83545645 -2 2 C-7.02505093 1.28213558 -9.71585516 2.05902619 -13 6 Z " fill="#070607" transform="translate(53,34)"/>
<path d="M0 0 C0.66 0 1.32 0 2 0 C2.33 2.97 2.66 5.94 3 9 C3.33 6.03 3.66 3.06 4 0 C4.33 0 4.66 0 5 0 C5.04898438 1.20398438 5.09796875 2.40796875 5.1484375 3.6484375 C5.22346343 5.22398198 5.29901133 6.79950166 5.375 8.375 C5.4059375 9.1690625 5.436875 9.963125 5.46875 10.78125 C5.51816421 15.36667375 5.51816421 15.36667375 8 19 C7.01 19 6.02 19 5 19 C5 19.66 5 20.32 5 21 C1.4513865 23.36574234 0.4235475 23.10865265 -3.6875 22.625 C-5.17830078 22.45871094 -5.17830078 22.45871094 -6.69921875 22.2890625 C-7.45847656 22.19367187 -8.21773437 22.09828125 -9 22 C-9 21.01 -9 20.02 -9 19 C-7 18 -7 18 0 18 C0 12.06 0 6.12 0 0 Z " fill="#3B605D" transform="translate(29,14)"/>
<path d="M0 0 C0.33 0 0.66 0 1 0 C3.30477043 31.32018382 3.30477043 31.32018382 -1 38 C-4.43625063 41.52912227 -7.12547646 42.54655595 -12 43 C-11.67 42.01 -11.34 41.02 -11 40 C-10.05125 39.54625 -9.1025 39.0925 -8.125 38.625 C-4.18130467 36.57427843 -2.77770875 34.41202907 -1.4296875 30.23120117 C-0.87721781 27.36243951 -0.90679546 24.65969022 -0.9375 21.73828125 C-0.94523437 20.53751953 -0.95296875 19.33675781 -0.9609375 18.09960938 C-0.97382812 16.84986328 -0.98671875 15.60011719 -1 14.3125 C-1.02537589 11.82946935 -1.04645406 9.34638972 -1.0625 6.86328125 C-1.07990234 5.21259644 -1.07990234 5.21259644 -1.09765625 3.52856445 C-1 1 -1 1 0 0 Z " fill="#060504" transform="translate(86,40)"/>
<path d="M0 0 C1.06992188 -0.03738281 2.13984375 -0.07476563 3.2421875 -0.11328125 C6.125 0.3125 6.125 0.3125 8.01953125 2.10546875 C9.67728442 5.4151173 8.97143907 7.79652234 8.125 11.3125 C6.125 13.3125 6.125 13.3125 3.84765625 13.578125 C2.96980469 13.57296875 2.09195313 13.5678125 1.1875 13.5625 C0.31222656 13.56765625 -0.56304687 13.5728125 -1.46484375 13.578125 C-3.875 13.3125 -3.875 13.3125 -6.875 11.3125 C-7.203125 8.96484375 -7.203125 8.96484375 -7.125 6.25 C-7.10953125 5.35152344 -7.0940625 4.45304687 -7.078125 3.52734375 C-6.6750546 -0.86767388 -3.84767074 0.08765677 0 0 Z M-4.875 2.3125 C-4.895625 3.611875 -4.91625 4.91125 -4.9375 6.25 C-4.94910156 6.98089844 -4.96070312 7.71179688 -4.97265625 8.46484375 C-5.08061184 10.32982141 -5.08061184 10.32982141 -3.875 11.3125 C-2.37761876 11.4104057 -0.87557108 11.44224864 0.625 11.4375 C1.4396875 11.44007812 2.254375 11.44265625 3.09375 11.4453125 C5.12030377 11.5370178 5.12030377 11.5370178 6.125 10.3125 C6.29166667 6.8125 6.29166667 6.8125 6.125 3.3125 C5.09093327 2.05300951 5.09093327 2.05300951 2.83984375 2.21484375 C1.92332031 2.22644531 1.00679688 2.23804687 0.0625 2.25 C-0.85660156 2.25902344 -1.77570313 2.26804687 -2.72265625 2.27734375 C-3.43292969 2.28894531 -4.14320312 2.30054687 -4.875 2.3125 Z " fill="#0E0702" transform="translate(71.875,16.6875)"/>
<path d="M0 0 C0.53915039 0.15847412 1.07830078 0.31694824 1.63378906 0.48022461 C4.40557189 1.08909023 7.02288851 1.21510316 9.859375 1.31640625 C10.97441406 1.35830078 12.08945313 1.40019531 13.23828125 1.44335938 C14.39714844 1.48267578 15.55601563 1.52199219 16.75 1.5625 C18.51150391 1.62727539 18.51150391 1.62727539 20.30859375 1.69335938 C23.20561451 1.79934794 26.10271935 1.90141638 29 2 C29 2.99 29 3.98 29 5 C22.4 5.33 15.8 5.66 9 6 C9.99 7.65 10.98 9.3 12 11 C12 12.32 12 13.64 12 15 C11.34 15 10.68 15 10 15 C9.78085938 14.48050781 9.56171875 13.96101563 9.3359375 13.42578125 C6.95822137 8.19673886 4.51938315 5.49225062 0 2 C0 1.34 0 0.68 0 0 Z " fill="#352418" transform="translate(56,30)"/>
<path d="M0 0 C4.75 0.75 4.75 0.75 7 3 C7.125 6.125 7.125 6.125 7 9 C4.24075815 10.80411967 3.11027897 11.0127245 -0.25 10.625 C-1.61125 10.315625 -1.61125 10.315625 -3 10 C-3.66 8.02 -4.32 6.04 -5 4 C-4.01 4 -3.02 4 -2 4 C-2 5.32 -2 6.64 -2 8 C0.31 8 2.62 8 5 8 C4.67 6.68 4.34 5.36 4 4 C2.35 3.67 0.7 3.34 -1 3 C-0.67 2.01 -0.34 1.02 0 0 Z " fill="#06090E" transform="translate(48,40)"/>
<path d="M0 0 C0.33 0 0.66 0 1 0 C1.34837852 4.89665366 1.52012314 8.82972293 -0.5 13.375 C-3.62363081 16.65481235 -6.85238589 18.28860583 -11 20 C-11.33 19.34 -11.66 18.68 -12 18 C-12.66 17.67 -13.32 17.34 -14 17 C-12.3603125 16.5359375 -12.3603125 16.5359375 -10.6875 16.0625 C-8.44592006 15.41662103 -6.2130649 14.7376883 -4 14 C-3.00231094 11.27501769 -3.00231094 11.27501769 -2.375 8.0625 C-1.05567452 2.11134904 -1.05567452 2.11134904 0 0 Z " fill="#19130F" transform="translate(68,43)"/>
<path d="M0 0 C0.66 0 1.32 0 2 0 C3.00496852 3.01490557 3.10335303 5.04181692 3.0625 8.1875 C3.05347656 9.08855469 3.04445313 9.98960938 3.03515625 10.91796875 C3.02355469 11.60503906 3.01195312 12.29210938 3 13 C1.68 13.33 0.36 13.66 -1 14 C-1.02685938 11.85423363 -1.04633088 9.70837355 -1.0625 7.5625 C-1.07410156 6.36753906 -1.08570313 5.17257813 -1.09765625 3.94140625 C-1 1 -1 1 0 0 Z " fill="#A85621" transform="translate(15,19)"/>
<path d="M0 0 C0.33 0 0.66 0 1 0 C1.48928347 4.10998119 1.1788048 5.72653384 -1.125 9.25 C-5.07149549 13.02490873 -7.97856343 13.92513198 -13.375 14.125 C-14.24125 14.08375 -15.1075 14.0425 -16 14 C-15.67 13.01 -15.34 12.02 -15 11 C-13.96939453 10.85304688 -13.96939453 10.85304688 -12.91796875 10.703125 C-12.01691406 10.55359375 -11.11585937 10.4040625 -10.1875 10.25 C-9.29417969 10.11078125 -8.40085937 9.9715625 -7.48046875 9.828125 C-4.47551322 8.82489575 -3.73755208 7.56719406 -2 5 C-1.34 5 -0.68 5 0 5 C0 3.35 0 1.7 0 0 Z " fill="#151211" transform="translate(62,44)"/>
<path d="M0 0 C0.99 0 1.98 0 3 0 C3 4.95 3 9.9 3 15 C2.01 15 1.02 15 0 15 C0 10.05 0 5.1 0 0 Z " fill="#F9BB0F" transform="translate(24,15)"/>
<path d="M0 0 C0.33 0 0.66 0 1 0 C1.07476562 0.61488281 1.14953125 1.22976562 1.2265625 1.86328125 C1.63415286 4.36876319 2.10323617 6.62272986 3 9 C5.78412726 11.05893153 5.78412726 11.05893153 9 12 C10.33333333 12.66666667 11.66666667 13.33333333 13 14 C5.76813075 14.49029622 5.76813075 14.49029622 2.0625 12.125 C-0.73171839 9.24610833 -0.98124333 8.53456508 -1.125 4.4375 C-1 1 -1 1 0 0 Z " fill="#030302" transform="translate(38,43)"/>
<path d="M0 0 C0.66 0 1.32 0 2 0 C2 4.95 2 9.9 2 15 C1.34 15 0.68 15 0 15 C-0.19390729 12.68802845 -0.37996367 10.3753971 -0.5625 8.0625 C-0.71912109 6.13083984 -0.71912109 6.13083984 -0.87890625 4.16015625 C-0.91886719 3.11730469 -0.95882813 2.07445312 -1 1 C-0.67 0.67 -0.34 0.34 0 0 Z " fill="#E74521" transform="translate(20,16)"/>
<path d="M0 0 C3.76842665 0.21533867 4.99717333 0.99736177 7.8125 3.625 C10.42275746 6.98570648 10.42154726 9.78452743 10 14 C9.7525 13.46375 9.505 12.9275 9.25 12.375 C5.93526558 5.83947146 5.93526558 5.83947146 0 2 C0 1.34 0 0.68 0 0 Z " fill="#040303" transform="translate(52,35)"/>
<path d="M0 0 C0.33 0.99 0.66 1.98 1 3 C-2.47325181 4.1577506 -5.36067448 4.06866652 -9 4 C-9 3.01 -9 2.02 -9 1 C-6.04335481 -0.4783226 -3.25770263 -0.06032783 0 0 Z " fill="#B7C4C4" transform="translate(29,32)"/>
<path d="M0 0 C1.65 0 3.3 0 5 0 C5.33 1.65 5.66 3.3 6 5 C3.69 5 1.38 5 -1 5 C-0.67 3.35 -0.34 1.7 0 0 Z " fill="#273B59" transform="translate(47,43)"/>
<path d="M0 0 C0.33 0 0.66 0 1 0 C1.13277344 0.83144531 1.26554687 1.66289063 1.40234375 2.51953125 C1.57894531 3.60621094 1.75554688 4.69289063 1.9375 5.8125 C2.19853516 7.43091797 2.19853516 7.43091797 2.46484375 9.08203125 C2.93871921 12.04933356 2.93871921 12.04933356 4 15 C3.01 15 2.02 15 1 15 C-1.35033491 10.44622611 -1.4457809 6.01762683 -1 1 C-0.67 0.67 -0.34 0.34 0 0 Z " fill="#080605" transform="translate(33,40)"/>
<path d="M0 0 C2.1519437 3.22791555 2.20086443 4.28400809 2 8 C1.01 8 0.02 8 -1 8 C-1.33 6.02 -1.66 4.04 -2 2 C-4.97 1.67 -7.94 1.34 -11 1 C-11 0.67 -11 0.34 -11 0 C-3.08304498 -1.37024221 -3.08304498 -1.37024221 0 0 Z " fill="#1A1311" transform="translate(79,18)"/>
<path d="M0 0 C0.99 0 1.98 0 3 0 C3 1.98 3 3.96 3 6 C1.68 5.67 0.36 5.34 -1 5 C-0.67 3.35 -0.34 1.7 0 0 Z " fill="#BECDCF" transform="translate(44,38)"/>
<path d="M0 0 C0.66 0.33 1.32 0.66 2 1 C1.34 3.31 0.68 5.62 0 8 C-0.99 8 -1.98 8 -3 8 C-2.45276317 4.62537285 -1.9451 2.91765 0 0 Z " fill="#141212" transform="translate(40,36)"/>
<path d="M0 0 C0.33 0 0.66 0 1 0 C1.35338623 2.96844435 1.5417682 5.15598218 -0.11328125 7.734375 C-1.35503168 9.20348819 -2.67337918 10.60704814 -4 12 C-4.33 11.34 -4.66 10.68 -5 10 C-3.6875 7.375 -3.6875 7.375 -2 5 C-1.34 5 -0.68 5 0 5 C0 3.35 0 1.7 0 0 Z " fill="#0F0C0A" transform="translate(62,44)"/>
<path d="M0 0 C0.33 0 0.66 0 1 0 C1.66 2.97 2.32 5.94 3 9 C2.01 9 1.02 9 0 9 C-0.66 6.69 -1.32 4.38 -2 2 C-1.34 1.34 -0.68 0.68 0 0 Z " fill="#DEA883" transform="translate(36,45)"/>
<path d="M0 0 C0.33 0 0.66 0 1 0 C1.04254356 1.99954746 1.04080783 4.00041636 1 6 C0 7 0 7 -2.28515625 7.09765625 C-3.65994141 7.08025391 -3.65994141 7.08025391 -5.0625 7.0625 C-5.98160156 7.05347656 -6.90070313 7.04445313 -7.84765625 7.03515625 C-8.55792969 7.02355469 -9.26820312 7.01195312 -10 7 C-10 6.67 -10 6.34 -10 6 C-7.36 5.67 -4.72 5.34 -2 5 C-1.34 3.35 -0.68 1.7 0 0 Z " fill="#010101" transform="translate(79,22)"/>
<path d="M0 0 C0.33 0 0.66 0 1 0 C1.1875 2.875 1.1875 2.875 1 6 C0.01 6.66 -0.98 7.32 -2 8 C-1.125 1.125 -1.125 1.125 0 0 Z " fill="#F8BC92" transform="translate(36,39)"/>
</svg>
