<?xml version="1.0" encoding="UTF-8"?>
<svg version="1.1" xmlns="http://www.w3.org/2000/svg" width="96" height="96">
<path d="M0 0 C0.97130859 -0.01144043 1.94261719 -0.02288086 2.94335938 -0.03466797 C4.14085815 -0.05049927 4.14085815 -0.05049927 5.36254883 -0.06665039 C10.90081109 0.29713932 15.59171157 3.20743422 19.45507812 7.07080078 C27.36348987 18.41168291 25.7986776 34.0421332 25.77075195 47.18994141 C25.76757117 50.32765816 25.79118988 53.46444861 25.81640625 56.60205078 C25.81867785 58.61767461 25.81938339 60.63330094 25.81835938 62.64892578 C25.82756912 63.57618469 25.83677887 64.5034436 25.8462677 65.45880127 C25.80319261 71.55561586 25.38055279 77.84018988 21.07392883 82.5960083 C17.07642906 86.06296154 13.47656881 88.28729814 8.17163086 88.40551758 C6.9126725 88.44016365 6.9126725 88.44016365 5.62828064 88.47550964 C4.72420975 88.49019791 3.82013885 88.50488617 2.88867188 88.52001953 C1.94057144 88.54175735 0.99247101 88.56349518 0.01564026 88.58589172 C-1.99916218 88.62982296 -4.01407255 88.6690195 -6.02905273 88.70385742 C-9.0445138 88.7571882 -12.05918097 88.8277405 -15.07421875 88.90087891 C-24.42930403 89.10603302 -33.78202171 89.17349566 -43.13476562 88.84033203 C-43.90027237 88.8250798 -44.66577911 88.80982758 -45.45448303 88.79411316 C-51.80994141 88.49290089 -55.49158838 86.23820836 -59.79492188 81.69580078 C-65.23633972 72.58142589 -63.84192922 59.38548203 -63.60693359 49.09228516 C-63.54616004 46.13112988 -63.5118732 43.17024336 -63.48091125 40.20864868 C-63.44600732 37.34124826 -63.39213691 34.47438336 -63.3343811 31.60736084 C-63.30831149 30.17927849 -63.28832071 28.75107075 -63.27474976 27.32281494 C-63.12038673 12.74607718 -63.12038673 12.74607718 -58.54492188 6.07080078 C-56.68554688 4.44970703 -56.68554688 4.44970703 -54.79492188 3.63330078 C-54.18132813 3.34583984 -53.56773438 3.05837891 -52.93554688 2.76220703 C-46.68528278 0.95453261 -40.08193685 0.89335284 -33.61914062 0.75439453 C-32.79090286 0.73361343 -31.9626651 0.71283234 -31.10932922 0.69142151 C-29.36728348 0.64844966 -27.62518999 0.60737503 -25.88305664 0.56811523 C-23.25004566 0.50869848 -20.61722434 0.44360082 -17.984375 0.37744141 C-11.98995096 0.23012009 -5.99500795 0.11973501 0 0 Z " fill="#4979AF" transform="translate(67.544921875,3.92919921875)"/>
<path d="M0 0 C0.97130859 -0.01144043 1.94261719 -0.02288086 2.94335938 -0.03466797 C4.14085815 -0.05049927 4.14085815 -0.05049927 5.36254883 -0.06665039 C10.90081109 0.29713932 15.59171157 3.20743422 19.45507812 7.07080078 C27.36348987 18.41168291 25.7986776 34.0421332 25.77075195 47.18994141 C25.76757117 50.32765816 25.79118988 53.46444861 25.81640625 56.60205078 C25.81867785 58.61767461 25.81938339 60.63330094 25.81835938 62.64892578 C25.82756912 63.57618469 25.83677887 64.5034436 25.8462677 65.45880127 C25.80319261 71.55561586 25.38055279 77.84018988 21.07392883 82.5960083 C17.07642906 86.06296154 13.47656881 88.28729814 8.17163086 88.40551758 C6.9126725 88.44016365 6.9126725 88.44016365 5.62828064 88.47550964 C4.72420975 88.49019791 3.82013885 88.50488617 2.88867188 88.52001953 C1.94057144 88.54175735 0.99247101 88.56349518 0.01564026 88.58589172 C-1.99916218 88.62982296 -4.01407255 88.6690195 -6.02905273 88.70385742 C-9.0445138 88.7571882 -12.05918097 88.8277405 -15.07421875 88.90087891 C-24.42930403 89.10603302 -33.78202171 89.17349566 -43.13476562 88.84033203 C-43.90027237 88.8250798 -44.66577911 88.80982758 -45.45448303 88.79411316 C-51.80994141 88.49290089 -55.49158838 86.23820836 -59.79492188 81.69580078 C-65.23633972 72.58142589 -63.84192922 59.38548203 -63.60693359 49.09228516 C-63.54616004 46.13112988 -63.5118732 43.17024336 -63.48091125 40.20864868 C-63.44600732 37.34124826 -63.39213691 34.47438336 -63.3343811 31.60736084 C-63.30831149 30.17927849 -63.28832071 28.75107075 -63.27474976 27.32281494 C-63.12038673 12.74607718 -63.12038673 12.74607718 -58.54492188 6.07080078 C-56.68554688 4.44970703 -56.68554688 4.44970703 -54.79492188 3.63330078 C-54.18132813 3.34583984 -53.56773438 3.05837891 -52.93554688 2.76220703 C-46.68528278 0.95453261 -40.08193685 0.89335284 -33.61914062 0.75439453 C-32.79090286 0.73361343 -31.9626651 0.71283234 -31.10932922 0.69142151 C-29.36728348 0.64844966 -27.62518999 0.60737503 -25.88305664 0.56811523 C-23.25004566 0.50869848 -20.61722434 0.44360082 -17.984375 0.37744141 C-11.98995096 0.23012009 -5.99500795 0.11973501 0 0 Z M-44.23242188 3.82080078 C-45.03599121 3.88243408 -45.83956055 3.94406738 -46.66748047 4.00756836 C-51.40852982 4.51384808 -54.2591656 5.58387576 -57.54492188 9.07080078 C-59.27895809 12.66560449 -59.82845223 15.65820517 -59.95898438 19.62939453 C-59.99805908 20.72340576 -60.03713379 21.81741699 -60.07739258 22.94458008 C-60.10792725 24.12060791 -60.13846191 25.29663574 -60.16992188 26.50830078 C-60.20496826 27.73009033 -60.24001465 28.95187988 -60.27612305 30.21069336 C-60.36203247 33.48627614 -60.436053 36.76180405 -60.50201416 40.0378418 C-60.54518992 42.08350058 -60.59588343 44.12886619 -60.64794922 46.17431641 C-60.74731693 50.20215049 -60.80498729 54.22957645 -60.85742188 58.25830078 C-60.88723145 59.50345459 -60.91704102 60.7486084 -60.94775391 62.03149414 C-60.99330929 69.14249557 -60.48778648 74.99196725 -56.54492188 81.07080078 C-52.32248157 85.0921725 -49.74652178 86.19364892 -44.01293945 86.23193359 C-42.85445999 86.24154114 -41.69598053 86.25114868 -40.50239563 86.26104736 C-38.61498909 86.26742218 -38.61498909 86.26742218 -36.68945312 86.27392578 C-35.39931808 86.27962585 -34.10918304 86.28532593 -32.779953 86.29119873 C-30.0436463 86.30171123 -27.30736898 86.30755136 -24.57104492 86.31103516 C-21.07857501 86.31650195 -17.58649852 86.34048926 -14.0941515 86.36900711 C-10.75092679 86.39221598 -7.40775417 86.39408952 -4.06445312 86.39892578 C-2.81630325 86.41127258 -1.56815338 86.42361938 -0.28218079 86.43634033 C6.77159309 86.41831244 12.62441084 86.36895378 18.19726562 81.57080078 C21.35742595 77.38631263 22.57953454 74.56808349 22.58447266 69.375 C22.5892009 67.94738846 22.5892009 67.94738846 22.59402466 66.49093628 C22.59200043 65.46283844 22.5899762 64.4347406 22.58789062 63.37548828 C22.58932571 61.78246384 22.58932571 61.78246384 22.59078979 60.15725708 C22.59147088 57.90610698 22.58962157 55.65495493 22.58544922 53.40380859 C22.58013165 49.9802602 22.5853802 46.55684491 22.59179688 43.13330078 C22.59113546 40.94319633 22.58985299 38.75309196 22.58789062 36.56298828 C22.59092697 35.0390596 22.59092697 35.0390596 22.59402466 33.48434448 C22.61303818 19.8528567 22.61303818 19.8528567 16.45507812 8.07080078 C11.23595908 3.22447595 7.03141105 2.91336316 0.15039062 2.90283203 C-0.67737381 2.89859726 -1.50513824 2.89436249 -2.35798645 2.88999939 C-5.04534941 2.88009138 -7.73254385 2.88007868 -10.41992188 2.88330078 C-11.78100571 2.88420715 -11.78100571 2.88420715 -13.16958618 2.88513184 C-28.7168747 2.91225483 -28.7168747 2.91225483 -44.23242188 3.82080078 Z " fill="#040709" transform="translate(67.544921875,3.92919921875)"/>
<path d="M0 0 C2.64 0 5.28 0 8 0 C8.66 1.65 9.32 3.3 10 5 C10.5775 4.71125 11.155 4.4225 11.75 4.125 C12.86375 3.568125 12.86375 3.568125 14 3 C14.61488281 2.65324219 15.22976562 2.30648437 15.86328125 1.94921875 C19.50180565 0.33283588 23.09631045 0.5600493 27 1 C30.63060299 2.42067073 31.71946242 3.53911684 33.75 6.875 C35.95878582 12.39696455 36.15575785 17.53711817 36.125 23.4375 C36.13080078 24.54448242 36.13080078 24.54448242 36.13671875 25.67382812 C36.12921962 29.89208711 35.82963428 33.8452442 35 38 C33.02 38 31.04 38 29 38 C28.98541748 37.39003174 28.97083496 36.78006348 28.95581055 36.15161133 C28.88105225 33.37128936 28.78448518 30.59213176 28.6875 27.8125 C28.66494141 26.85279297 28.64238281 25.89308594 28.61914062 24.90429688 C28.39689672 17.95091049 28.39689672 17.95091049 25 12 C22.02536663 10.51268332 20.32721157 10.5686948 17 11 C13.76662961 12.49800833 11.28872957 14.25740818 9 17 C8.02811534 20.83949451 8.23635213 24.44563264 8.5 28.375 C8.53609375 29.39722656 8.5721875 30.41945313 8.609375 31.47265625 C8.70331919 33.98566323 8.83446434 36.49086139 9 39 C6.36 39 3.72 39 1 39 C0.67 26.13 0.34 13.26 0 0 Z " fill="#D0DFDF" transform="translate(41,41)"/>
<path d="M0 0 C1.62490954 -0.02698189 3.24994633 -0.04638757 4.875 -0.0625 C5.77992187 -0.07410156 6.68484375 -0.08570313 7.6171875 -0.09765625 C10 0 10 0 12 1 C12 2.32 12 3.64 12 5 C13.11375 4.34 14.2275 3.68 15.375 3 C20.24689086 0.56838129 24.63953703 0.23289927 30 1 C33.74724855 2.59457385 35.95114005 4.48766866 38 8 C40.06201607 13.7947167 40.27333907 19.00783693 40.1875 25.125 C40.18685547 26.00542969 40.18621094 26.88585937 40.18554688 27.79296875 C40.15712133 31.98099916 40.05837431 35.91890868 39 40 C38.67 40 38.34 40 38 40 C37.98541748 39.35562988 37.97083496 38.71125977 37.95581055 38.04736328 C37.88044526 35.07269801 37.7840837 32.09904905 37.6875 29.125 C37.65366211 27.60519531 37.65366211 27.60519531 37.61914062 26.0546875 C37.28234992 14.55472161 37.28234992 14.55472161 31.875 4.875 C27.83044249 3.64404772 24.18500193 3.29142824 20 4 C16.69140528 5.95456777 16.69140528 5.95456777 14 8 C13.01 7.67 12.02 7.34 11 7 C10.67 5.35 10.34 3.7 10 2 C7.36 2 4.72 2 2 2 C2.33 2.66 2.66 3.32 3 4 C3.08683445 6.77160626 3.1155579 9.51774765 3.09765625 12.2890625 C3.0962413 13.10748627 3.09482635 13.92591003 3.09336853 14.76913452 C3.0877629 17.38779325 3.07520948 20.00636704 3.0625 22.625 C3.05748572 24.39843627 3.05292269 26.17187387 3.04882812 27.9453125 C3.03779164 32.29690782 3.02052325 36.6484395 3 41 C5.64 41 8.28 41 11 41 C10.835 39.96875 10.67 38.9375 10.5 37.875 C8.58174369 21.09025733 8.58174369 21.09025733 11.4921875 16.80078125 C14.64946646 14.09547791 17.65832754 12.17888966 21.8125 11.625 C26.04029414 12.12238755 27.32817564 13.79381077 30 17 C31.20270964 19.40541929 31.20316663 21.10366591 31.31640625 23.7890625 C31.35830078 24.73007812 31.40019531 25.67109375 31.44335938 26.640625 C31.48267578 27.62546875 31.52199219 28.6103125 31.5625 29.625 C31.60568359 30.61757812 31.64886719 31.61015625 31.69335938 32.6328125 C31.79961069 35.08839838 31.90164964 37.54408703 32 40 C33.32 40.33 34.64 40.66 36 41 C36 41.66 36 42.32 36 43 C33.625 43.125 33.625 43.125 31 43 C28.53442691 40.53442691 28.74135265 39.78013578 28.69140625 36.38671875 C28.66626953 35.46826172 28.64113281 34.54980469 28.61523438 33.60351562 C28.5802912 31.67128722 28.54899578 29.73898914 28.52148438 27.80664062 C28.33526233 20.93473598 28.33526233 20.93473598 25 15 C21.05951788 15.23179307 18.55593917 15.61634614 15.27734375 17.87890625 C11.95789125 22.42820736 12.48416837 26.27829896 12.75 31.75 C12.8109194 33.66134615 12.86840454 35.57280596 12.921875 37.484375 C12.95893555 38.32709961 12.99599609 39.16982422 13.03417969 40.03808594 C13 42 13 42 12 43 C10.16884117 43.09851171 8.33380067 43.12972629 6.5 43.125 C5.4996875 43.12757812 4.499375 43.13015625 3.46875 43.1328125 C1 43 1 43 0 42 C-0.08874135 38.89748799 -0.11518455 35.8173188 -0.09765625 32.71484375 C-0.0962413 31.78402481 -0.09482635 30.85320587 -0.09336853 29.8941803 C-0.08775172 26.90858809 -0.0751964 23.92306971 -0.0625 20.9375 C-0.05748716 18.91862087 -0.05292388 16.89974057 -0.04882812 14.88085938 C-0.03777683 9.92054428 -0.02050095 4.96028468 0 0 Z " fill="#364350" transform="translate(39,39)"/>
<path d="M0 0 C3.3 0 6.6 0 10 0 C11.19148936 26.10638298 11.19148936 26.10638298 11 37 C7.7 37 4.4 37 1 37 C0.67 24.79 0.34 12.58 0 0 Z " fill="#CCDBDB" transform="translate(22,42)"/>
<path d="M0 0 C4.62 0 9.24 0 14 0 C14.72207821 13.68080324 15.14237837 27.30003704 15 41 C10.38 41 5.76 41 1 41 C0.67 27.47 0.34 13.94 0 0 Z M2 2 C2.33 14.21 2.66 26.42 3 39 C6.3 39 9.6 39 13 39 C13.21707369 26.65091908 12.56286252 14.3327199 12 2 C8.7 2 5.4 2 2 2 Z " fill="#11171E" transform="translate(20,40)"/>
<path d="M0 0 C0.33 0 0.66 0 1 0 C1.33 11.55 1.66 23.1 2 35 C5.96 35.495 5.96 35.495 10 36 C9.835 34.96875 9.67 33.9375 9.5 32.875 C7.58174369 16.09025733 7.58174369 16.09025733 10.4921875 11.80078125 C13.64946646 9.09547791 16.65832754 7.17888966 20.8125 6.625 C25.04029414 7.12238755 26.32817564 8.79381077 29 12 C30.20270964 14.40541929 30.20316663 16.10366591 30.31640625 18.7890625 C30.35830078 19.73007812 30.40019531 20.67109375 30.44335938 21.640625 C30.48267578 22.62546875 30.52199219 23.6103125 30.5625 24.625 C30.60568359 25.61757812 30.64886719 26.61015625 30.69335938 27.6328125 C30.79961069 30.08839838 30.90164964 32.54408703 31 35 C32.32 35.33 33.64 35.66 35 36 C35 36.66 35 37.32 35 38 C32.625 38.125 32.625 38.125 30 38 C27.53442691 35.53442691 27.74135265 34.78013578 27.69140625 31.38671875 C27.66626953 30.46826172 27.64113281 29.54980469 27.61523438 28.60351562 C27.5802912 26.67128722 27.54899578 24.73898914 27.52148438 22.80664062 C27.33526233 15.93473598 27.33526233 15.93473598 24 10 C20.05951788 10.23179307 17.55593917 10.61634614 14.27734375 12.87890625 C10.95789125 17.42820736 11.48416837 21.27829896 11.75 26.75 C11.8109194 28.66134615 11.86840454 30.57280596 11.921875 32.484375 C11.95893555 33.32709961 11.99599609 34.16982422 12.03417969 35.03808594 C12 37 12 37 11 38 C7.37 38 3.74 38 0 38 C0 25.46 0 12.92 0 0 Z " fill="#171A1C" transform="translate(40,44)"/>
<path d="M0 0 C8.69721116 -0.44223108 8.69721116 -0.44223108 13 3 C18.56934843 8.7756206 18.29282701 16.6190647 18.1875 24.125 C18.18685547 25.00542969 18.18621094 25.88585937 18.18554688 26.79296875 C18.15712133 30.98099916 18.05837431 34.91890868 17 39 C16.67 39 16.34 39 16 39 C15.98541748 38.35562988 15.97083496 37.71125977 15.95581055 37.04736328 C15.88044526 34.07269801 15.7840837 31.09904905 15.6875 28.125 C15.66494141 27.11179687 15.64238281 26.09859375 15.61914062 25.0546875 C15.38493835 18.41185933 14.67054693 12.15320344 12 6 C8.45100758 2.74675695 4.70438937 2.46121464 0 2 C0 1.34 0 0.68 0 0 Z " fill="#07080A" transform="translate(61,40)"/>
<path d="M0 0 C2.4375 0.8125 2.4375 0.8125 4.4375 2.8125 C4.6875 5.3125 4.6875 5.3125 4.4375 7.8125 C2.4375 9.8125 2.4375 9.8125 -1.0625 10.0625 C-4.5625 9.8125 -4.5625 9.8125 -6.5625 7.8125 C-6.3487539 5.03380072 -5.8614626 3.26094389 -4.3125 0.9375 C-2.5625 -0.1875 -2.5625 -0.1875 0 0 Z " fill="#C7D6D6" transform="translate(27.5625,22.1875)"/>
<path d="M0 0 C4.91511194 1.34048507 4.91511194 1.34048507 6.4375 3.9375 C6.97270313 7.53100675 6.88564771 9.25631548 4.875 12.3125 C1.50239221 14.56090519 -0.58762383 14.50533945 -4.5625 13.9375 C-7.0625 12.3125 -7.0625 12.3125 -8.5625 9.9375 C-8.5625 6.35663628 -7.91961105 4.47316658 -5.9375 1.5 C-3.5625 -0.0625 -3.5625 -0.0625 0 0 Z M-4.875 3.625 C-6.86038185 5.82423525 -6.86038185 5.82423525 -6.375 8.625 C-5.77323101 10.87101267 -5.77323101 10.87101267 -4.5625 11.9375 C-1.10428598 12.18753964 -1.10428598 12.18753964 2.4375 11.9375 C4.66716747 10.11546419 4.66716747 10.11546419 4.75 7.5 C4.63734395 4.92742726 4.63734395 4.92742726 3.1875 3.125 C0.11023059 1.0368529 -2.00538567 1.53095711 -4.875 3.625 Z " fill="#090D11" transform="translate(27.5625,20.0625)"/>
<path d="M0 0 C0.33 0 0.66 0 1 0 C1.02505615 1.05501709 1.0501123 2.11003418 1.07592773 3.19702148 C1.16984109 7.09770628 1.27010034 10.99820625 1.37231445 14.89868164 C1.41572439 16.58939299 1.45739489 18.28014991 1.49731445 19.97094727 C1.55487094 22.39613606 1.61860649 24.82109415 1.68359375 27.24609375 C1.70030624 28.00651474 1.71701874 28.76693573 1.73423767 29.55039978 C1.52091268 33.07082031 1.52091268 33.07082031 3 36 C5.32817964 36.36760731 7.6618385 36.70241581 10 37 C10 37.33 10 37.66 10 38 C6.7 38 3.4 38 0 38 C0 25.46 0 12.92 0 0 Z " fill="#020203" transform="translate(40,44)"/>
<path d="M0 0 C4.29 0 8.58 0 13 0 C13 4.95 13 9.9 13 15 C12.67 15 12.34 15 12 15 C12 10.71 12 6.42 12 2 C9.586875 2.1546875 9.586875 2.1546875 7.125 2.3125 C6.22007813 2.37050781 5.31515625 2.42851563 4.3828125 2.48828125 C1.63778399 2.7882039 1.63778399 2.7882039 0 6 C0 4.02 0 2.04 0 0 Z " fill="#050607" transform="translate(20,40)"/>
<path d="M0 0 C0.33 0 0.66 0 1 0 C1.33 5.94 1.66 11.88 2 18 C-1.06890187 19.53445094 -3.70094266 18.54984289 -7 18 C-7 17.67 -7 17.34 -7 17 C-4.69 17 -2.38 17 0 17 C-0.08378906 16.27554688 -0.16757812 15.55109375 -0.25390625 14.8046875 C-0.79527805 9.6650818 -1.23721798 5.08634058 0 0 Z " fill="#19212A" transform="translate(50,63)"/>
<path d="M0 0 C0.33 0 0.66 0 1 0 C1.33 6.27 1.66 12.54 2 19 C4.475 19.99 4.475 19.99 7 21 C7 21.66 7 22.32 7 23 C4.625 23.125 4.625 23.125 2 23 C0 21 0 21 -0.22705078 18.84521484 C-0.21657715 17.97590332 -0.20610352 17.1065918 -0.1953125 16.2109375 C-0.18886719 15.26992187 -0.18242188 14.32890625 -0.17578125 13.359375 C-0.15902344 12.37453125 -0.14226562 11.3896875 -0.125 10.375 C-0.11597656 9.38242188 -0.10695313 8.38984375 -0.09765625 7.3671875 C-0.07404116 4.91121866 -0.04110799 2.45572832 0 0 Z " fill="#05080B" transform="translate(68,59)"/>
<path d="M0 0 C0.721875 0.12375 1.44375 0.2475 2.1875 0.375 C1.40375 0.99375 0.62 1.6125 -0.1875 2.25 C-2.78087647 4.27358661 -2.78087647 4.27358661 -4.8125 6.375 C-4.49051034 9.47426819 -4.49051034 9.47426819 -3.8125 12.375 C-4.8025 12.375 -5.7925 12.375 -6.8125 12.375 C-7.625 9.75 -7.625 9.75 -7.8125 6.375 C-4.14673181 0.55289757 -4.14673181 0.55289757 0 0 Z " fill="#0E1319" transform="translate(26.8125,19.625)"/>
<path d="M0 0 C0 0.66 0 1.32 0 2 C-1.64453125 3.32421875 -1.64453125 3.32421875 -3.8125 4.6875 C-4.52019531 5.14511719 -5.22789063 5.60273437 -5.95703125 6.07421875 C-8 7 -8 7 -11 6 C-8.24029211 2.78034079 -4.3526723 0 0 0 Z " fill="#1B2025" transform="translate(61,40)"/>
<path d="M0 0 C0.66 0 1.32 0 2 0 C3.97094808 4.92737019 4.1799928 8.78020872 4 14 C3.67 14 3.34 14 3 14 C3 12.02 3 10.04 3 8 C2.34 8 1.68 8 1 8 C0.67 5.36 0.34 2.72 0 0 Z " fill="#0E161E" transform="translate(75,48)"/>
<path d="M0 0 C0.99 0.33 1.98 0.66 3 1 C3 3.31 3 5.62 3 8 C0.36 7.67 -2.28 7.34 -5 7 C-5 6.67 -5 6.34 -5 6 C-3.35 6 -1.7 6 0 6 C0 4.02 0 2.04 0 0 Z " fill="#3B464F" transform="translate(76,73)"/>
</svg>
